<?xml version="1.0" standalone="no"?>
<!DOCTYPE svg PUBLIC "-//W3C//DTD SVG 20010904//EN"
 "http://www.w3.org/TR/2001/REC-SVG-20010904/DTD/svg10.dtd">
<svg version="1.0" xmlns="http://www.w3.org/2000/svg"
 width="4167.000000pt" height="4167.000000pt" viewBox="0 0 4167.000000 4167.000000"
 preserveAspectRatio="xMidYMid meet">
<metadata>
Created by potrace 1.16, written by Peter Selinger 2001-2019
</metadata>
<g transform="translate(0.000000,4167.000000) scale(0.100000,-0.100000)"
fill="#000000" stroke="none">
<path d="M20230 41429 c-814 -23 -1696 -101 -2480 -219 -2433 -368 -4762
-1158 -6899 -2342 -2556 -1417 -4777 -3353 -6535 -5695 -1222 -1629 -2199
-3438 -2889 -5348 -663 -1836 -1054 -3716 -1181 -5690 -52 -797 -54 -1775 -6
-2575 212 -3498 1288 -6834 3153 -9780 1142 -1802 2589 -3453 4218 -4811 1490
-1241 3107 -2248 4864 -3029 2998 -1331 6283 -1921 9610 -1725 2515 149 4960
754 7277 1801 276 125 794 379 1079 529 2169 1145 4116 2665 5754 4490 1509
1683 2725 3589 3616 5667 892 2081 1439 4343 1599 6613 35 508 41 667 47 1285
7 792 -12 1322 -73 2020 -299 3439 -1444 6712 -3351 9585 -599 901 -1229 1707
-1991 2545 -237 260 -976 1001 -1232 1236 -1028 939 -2065 1722 -3209 2424
-3411 2091 -7341 3134 -11371 3019z m6952 -11161 l2708 -923 -3 -3124 -2
-3124 -2709 -923 -2709 -924 -3633 0 -3634 0 -2642 901 c-1454 496 -2676 912
-2716 926 l-72 25 2 3121 3 3121 2705 923 2705 922 3645 1 3645 0 2707 -922z
m2708 -10830 l0 -2313 -2708 -923 -2707 -922 -3645 0 -3645 1 -2705 922 -2705
923 -3 2307 c-2 2193 -1 2307 15 2306 10 0 304 -98 653 -217 l635 -217 5
-1624 5 -1623 2150 -734 2150 -733 3445 -1 3444 0 2141 729 c1177 401 2148
733 2158 736 16 7 17 94 17 1629 l0 1621 648 221 c356 122 648 222 650 223 1
0 2 -1040 2 -2311z m-17455 -3667 l640 -219 5 -1623 5 -1624 2150 -733 2150
-734 3435 -4 3435 -5 2165 739 2165 738 5 1624 5 1623 640 219 c352 120 643
218 648 218 4 0 7 -1039 7 -2309 l0 -2310 -22 -7 c-13 -4 -1229 -418 -2703
-920 l-2680 -914 -3652 0 -3651 0 -2695 919 c-1482 505 -2700 922 -2706 925
-17 11 -16 4616 2 4616 6 -1 300 -99 652 -219z"/>
<path d="M15935 29384 c-1669 -569 -1479 -503 -1473 -509 2 -3 665 -230 1472
-505 l1467 -500 3432 0 3432 0 1473 502 c873 297 1467 505 1459 509 -7 4 -667
231 -1467 503 l-1454 496 -3445 -1 -3446 0 -1450 -495z"/>
<path d="M13080 25996 c0 -1081 2 -1966 4 -1966 3 0 975 -331 2161 -735 l2156
-735 3432 0 3432 0 2163 737 2162 737 0 1963 c0 1080 -4 1963 -8 1963 -5 0
-932 -315 -2061 -700 l-2053 -700 -3634 0 -3634 0 -2043 696 c-1123 383 -2050
699 -2059 702 -17 4 -18 -94 -18 -1962z"/>
</g>
</svg>
